<svg width="34" height="31" viewBox="0 0 34 31" fill="none" xmlns="http://www.w3.org/2000/svg">
<path d="M15.7251 1.13129L6.0002 6.22809L7 6.22813L19.1792 3.43062L18.4295 1.98296C17.9197 0.998752 16.7068 0.616771 15.7251 1.13129Z" fill="#FAB72D"/>
<path d="M11 6.22754H25L24.5411 4.62138C24.2409 3.57078 23.1532 2.95553 22.0981 3.23959L11 6.22754Z" fill="url(#paint0_linear_197_13)"/>
<rect y="7.22754" width="29" height="22" rx="2" fill="url(#paint1_linear_197_13)"/>
<rect x="20" y="14.2275" width="14" height="8" rx="2" fill="url(#paint2_linear_197_13)"/>
<path d="M26.065 18.166C26.065 18.9944 25.3934 19.666 24.565 19.666C23.7366 19.666 23.065 18.9944 23.065 18.166C23.065 17.3376 23.7366 16.666 24.565 16.666C25.3934 16.666 26.065 17.3376 26.065 18.166Z" fill="white"/>
<path d="M10.216 13.9555V11.1875H11.288V13.9555H10.216ZM8.088 13.9555V11.1875H9.16V13.9555H8.088ZM10.216 25.7955V23.0275H11.288V25.7955H10.216ZM8.088 25.7955V23.0275H9.16V25.7955H8.088ZM6.44 24.2275V12.8035H9.192C10.1093 12.8035 10.872 12.8995 11.48 13.0915C12.0987 13.2729 12.5627 13.5769 12.872 14.0035C13.192 14.4195 13.352 14.9849 13.352 15.6995C13.352 16.1262 13.2987 16.5155 13.192 16.8675C13.0853 17.2195 12.9307 17.5075 12.728 17.7315C12.5253 17.9555 12.28 18.0995 11.992 18.1635V18.2435C12.3013 18.3182 12.5787 18.4515 12.824 18.6435C13.0693 18.8355 13.2667 19.1129 13.416 19.4755C13.5653 19.8382 13.64 20.3182 13.64 20.9155C13.64 21.6089 13.4907 22.2062 13.192 22.7075C12.8933 23.1982 12.4613 23.5769 11.896 23.8435C11.3413 24.0995 10.68 24.2275 9.912 24.2275H6.44ZM9.464 17.3315C9.99733 17.3315 10.3653 17.2195 10.568 16.9955C10.7707 16.7715 10.872 16.4462 10.872 16.0195C10.872 15.5822 10.7493 15.2675 10.504 15.0755C10.2587 14.8835 9.86933 14.7875 9.336 14.7875H8.856V17.3315H9.464ZM8.856 19.2515V22.2275H9.64C10.1947 22.2275 10.5787 22.0889 10.792 21.8115C11.016 21.5235 11.128 21.1449 11.128 20.6755C11.128 20.3875 11.08 20.1369 10.984 19.9235C10.888 19.7102 10.7227 19.5449 10.488 19.4275C10.264 19.3102 9.95467 19.2515 9.56 19.2515H8.856Z" fill="white"/>
<defs>
<linearGradient id="paint0_linear_197_13" x1="11.4828" y1="2.96618" x2="14.7402" y2="10.4711" gradientUnits="userSpaceOnUse">
<stop offset="0.232211" stop-color="#FAB72D"/>
<stop offset="0.918256" stop-color="#FFE2A7"/>
</linearGradient>
<linearGradient id="paint1_linear_197_13" x1="1" y1="8.72754" x2="28" y2="29.2275" gradientUnits="userSpaceOnUse">
<stop offset="0.232211" stop-color="#FFB620"/>
<stop offset="0.918256" stop-color="#FFE2A7"/>
</linearGradient>
<linearGradient id="paint2_linear_197_13" x1="20.4828" y1="14.773" x2="30.6753" y2="25.0469" gradientUnits="userSpaceOnUse">
<stop offset="0.232211" stop-color="#FFB620"/>
<stop offset="0.918256" stop-color="#FFE2A7"/>
</linearGradient>
</defs>
</svg>
