<svg width="164" height="36" viewBox="0 0 164 36" fill="none" xmlns="http://www.w3.org/2000/svg">
<g clip-path="url(#clip0_197_14)">
<path d="M52.23 26.27C50.09 26.27 48.45 25.59 47.31 24.23C46.19 22.87 45.63 21.13 45.63 19.01C45.63 16.89 46.2 15.15 47.34 13.79C48.48 12.41 50.13 11.72 52.29 11.72C53.67 11.72 54.79 11.99 55.65 12.53C56.53 13.05 56.97 13.74 56.97 14.6C56.97 15.44 56.62 16.1 55.92 16.58C55.22 17.06 54.34 17.3 53.28 17.3C53.88 16.66 54.18 15.79 54.18 14.69C54.18 14.05 53.98 13.52 53.58 13.1C53.2 12.66 52.7 12.44 52.08 12.44C50.94 12.44 50.1 13.09 49.56 14.39C49.04 15.69 48.78 17.23 48.78 19.01C48.78 20.15 48.94 21.19 49.26 22.13C49.6 23.07 50.08 23.82 50.7 24.38C51.34 24.92 52.07 25.19 52.89 25.19C53.83 25.19 54.61 25 55.23 24.62C55.87 24.22 56.45 23.67 56.97 22.97L57.33 23.24C56.79 24.14 56.09 24.87 55.23 25.43C54.39 25.99 53.39 26.27 52.23 26.27ZM64.6812 16.04C65.3212 16.04 65.8412 16.23 66.2412 16.61C66.6412 16.97 66.8412 17.44 66.8412 18.02C66.8412 18.56 66.6812 19 66.3612 19.34C66.0412 19.66 65.6212 19.82 65.1012 19.82C64.7012 19.82 64.3312 19.74 63.9912 19.58C64.3512 19.28 64.5312 18.83 64.5312 18.23C64.5312 17.95 64.4712 17.73 64.3512 17.57C64.2312 17.41 64.0712 17.33 63.8712 17.33C63.3912 17.33 62.9912 17.82 62.6712 18.8C62.3512 19.76 62.1912 20.96 62.1912 22.4C62.1912 23.14 62.2312 23.73 62.3112 24.17C62.4112 24.61 62.5712 25.02 62.7912 25.4L63.0312 25.7L62.7912 26H58.4412L58.2612 25.49L58.6812 25.4C59.0012 25.32 59.2112 25.2 59.3112 25.04C59.4112 24.86 59.4612 24.52 59.4612 24.02V18.17C59.4612 17.79 59.3312 17.6 59.0712 17.6H58.1412L58.0212 17.27C58.4012 16.93 58.8712 16.65 59.4312 16.43C60.0112 16.21 60.5812 16.1 61.1412 16.1C61.4012 16.1 61.6112 16.16 61.7712 16.28C61.9312 16.4 62.0112 16.56 62.0112 16.76V18.95H62.1012C62.5212 17.01 63.3812 16.04 64.6812 16.04ZM77.4727 16.1V26C77.4727 27.58 77.0127 28.8 76.0927 29.66C75.1927 30.54 73.9327 30.98 72.3127 30.98C71.3127 30.98 70.5027 30.79 69.8827 30.41C69.2627 30.03 68.9527 29.53 68.9527 28.91C68.9527 28.37 69.1127 27.93 69.4327 27.59C69.7527 27.27 70.1727 27.11 70.6927 27.11C71.0727 27.11 71.4427 27.19 71.8027 27.35C71.4427 27.71 71.2627 28.2 71.2627 28.82C71.2627 29.26 71.3927 29.62 71.6527 29.9C71.9327 30.18 72.2827 30.32 72.7027 30.32C74.1027 30.32 74.8027 29.18 74.8027 26.9V23.09C74.5427 23.85 74.0827 24.48 73.4227 24.98C72.7827 25.46 72.0927 25.7 71.3527 25.7C70.4727 25.7 69.8227 25.43 69.4027 24.89C68.9827 24.35 68.7727 23.53 68.7727 22.43V17.96C68.7727 17.68 68.6427 17.54 68.3827 17.54H67.4527L67.3627 17.21C67.7427 16.87 68.2427 16.59 68.8627 16.37C69.4827 16.15 70.0727 16.04 70.6327 16.04C70.8927 16.04 71.0927 16.1 71.2327 16.22C71.3927 16.34 71.4727 16.5 71.4727 16.7V22.76C71.4727 23.88 71.8227 24.44 72.5227 24.44C73.2027 24.44 73.7527 24.03 74.1727 23.21C74.5927 22.39 74.8027 21.3 74.8027 19.94C74.8027 19.22 74.7427 18.63 74.6227 18.17C74.5027 17.71 74.3127 17.31 74.0527 16.97L73.8127 16.64L74.0227 16.37L77.4727 16.1ZM87.0202 16.04C88.0402 16.04 88.8602 16.49 89.4802 17.39C90.1202 18.27 90.4402 19.43 90.4402 20.87C90.4402 21.89 90.2502 22.81 89.8702 23.63C89.5102 24.43 88.9902 25.06 88.3102 25.52C87.6502 25.96 86.9002 26.18 86.0602 26.18C85.5802 26.18 85.1202 26.11 84.6802 25.97C84.2602 25.81 83.9002 25.59 83.6002 25.31V28.73C83.6002 29.21 83.6602 29.53 83.7802 29.69C83.9202 29.87 84.2302 30.01 84.7102 30.11L85.1002 30.2L84.9202 30.71H80.2702L80.0302 30.41L80.2702 30.11C80.5102 29.79 80.6702 29.44 80.7502 29.06C80.8502 28.7 80.9002 28.21 80.9002 27.59V18.17C80.9002 17.81 80.7702 17.63 80.5102 17.63H79.5802L79.4902 17.3C79.8702 16.96 80.3602 16.68 80.9602 16.46C81.5802 16.24 82.1802 16.13 82.7602 16.13C83.0202 16.13 83.2202 16.19 83.3602 16.31C83.5202 16.43 83.6002 16.59 83.6002 16.79V18.11C84.1002 17.39 84.6202 16.87 85.1602 16.55C85.7202 16.21 86.3402 16.04 87.0202 16.04ZM84.9202 25.31C85.7402 25.31 86.3602 24.96 86.7802 24.26C87.2202 23.56 87.4402 22.53 87.4402 21.17C87.4402 19.99 87.2802 19.09 86.9602 18.47C86.6402 17.83 86.1802 17.51 85.5802 17.51C84.7802 17.51 84.1202 18.04 83.6002 19.1V24.92C83.9802 25.18 84.4202 25.31 84.9202 25.31ZM95.1626 26.27C94.3426 26.27 93.7526 26.09 93.3926 25.73C93.0326 25.35 92.8526 24.74 92.8526 23.9V17.54H91.3526C91.3526 17.2 91.3726 16.98 91.4126 16.88C91.4526 16.78 91.5726 16.7 91.7726 16.64C92.4326 16.46 92.9526 16.18 93.3326 15.8C93.7126 15.42 94.0226 14.87 94.2626 14.15C94.3226 13.93 94.4226 13.8 94.5626 13.76C94.7026 13.7 95.0426 13.67 95.5826 13.67V16.37H98.0426C98.0426 16.63 98.0026 16.87 97.9226 17.09C97.8426 17.29 97.7326 17.44 97.5926 17.54H95.5826V24.29C95.5826 24.89 95.8326 25.19 96.3326 25.19C96.5526 25.19 96.7926 25.12 97.0526 24.98C97.3326 24.84 97.5826 24.65 97.8026 24.41L98.0426 24.71C97.1826 25.75 96.2226 26.27 95.1626 26.27ZM98.9517 21.17C98.9517 19.59 99.4017 18.34 100.302 17.42C101.222 16.5 102.462 16.04 104.022 16.04C105.582 16.04 106.822 16.51 107.742 17.45C108.662 18.37 109.122 19.61 109.122 21.17C109.122 22.73 108.662 23.97 107.742 24.89C106.822 25.81 105.582 26.27 104.022 26.27C102.462 26.27 101.222 25.81 100.302 24.89C99.4017 23.97 98.9517 22.73 98.9517 21.17ZM106.092 21.23C106.092 19.89 105.902 18.8 105.522 17.96C105.142 17.1 104.662 16.67 104.082 16.67C103.442 16.67 102.922 17.09 102.522 17.93C102.122 18.75 101.922 19.83 101.922 21.17C101.922 22.53 102.102 23.61 102.462 24.41C102.842 25.21 103.342 25.61 103.962 25.61C104.582 25.61 105.092 25.21 105.492 24.41C105.892 23.59 106.092 22.53 106.092 21.23ZM122.075 23.3C122.275 23.86 122.495 24.31 122.735 24.65C122.975 24.97 123.345 25.32 123.845 25.7L123.575 26H118.145L117.965 25.46L118.415 25.34C118.715 25.24 118.925 25.12 119.045 24.98C119.185 24.82 119.255 24.61 119.255 24.35C119.255 24.19 119.145 23.78 118.925 23.12L118.325 21.35H113.675L113.435 22.1C113.135 23 112.985 23.68 112.985 24.14C112.985 24.58 113.065 24.98 113.225 25.34L113.435 25.7L113.165 26H109.865L109.655 25.46L110.105 25.34C110.585 25.2 110.945 25.01 111.185 24.77C111.425 24.51 111.655 24.06 111.875 23.42L114.935 14.6C115.075 14.1 115.145 13.75 115.145 13.55C115.145 13.11 114.825 12.8 114.185 12.62L113.855 12.53L114.065 11.99H118.145L122.075 23.3ZM118.025 20.51L115.985 14.42L113.975 20.51H118.025ZM135.988 25.04C135.248 25.86 134.378 26.27 133.378 26.27C132.758 26.27 132.298 26.14 131.998 25.88C131.698 25.6 131.498 25.15 131.398 24.53C130.878 25.13 130.338 25.57 129.778 25.85C129.218 26.13 128.598 26.27 127.918 26.27C126.918 26.27 126.098 25.83 125.458 24.95C124.838 24.07 124.528 22.93 124.528 21.53C124.528 19.85 124.968 18.52 125.848 17.54C126.728 16.54 127.928 16.04 129.448 16.04C130.148 16.04 130.788 16.2 131.368 16.52V13.19C131.368 12.91 131.238 12.77 130.978 12.77H129.958L129.838 12.47C130.238 12.11 130.748 11.83 131.368 11.63C131.988 11.41 132.598 11.3 133.198 11.3C133.458 11.3 133.668 11.36 133.828 11.48C133.988 11.58 134.068 11.73 134.068 11.93V24.29C134.068 24.89 134.258 25.19 134.638 25.19C135.018 25.19 135.388 25.04 135.748 24.74L135.988 25.04ZM129.478 24.83C130.238 24.83 130.868 24.41 131.368 23.57V17.12C130.968 16.92 130.528 16.82 130.048 16.82C128.368 16.82 127.528 18.27 127.528 21.17C127.528 22.35 127.688 23.26 128.008 23.9C128.348 24.52 128.838 24.83 129.478 24.83ZM148.234 25.04C147.494 25.86 146.624 26.27 145.624 26.27C145.004 26.27 144.544 26.14 144.244 25.88C143.944 25.6 143.744 25.15 143.644 24.53C143.124 25.13 142.584 25.57 142.024 25.85C141.464 26.13 140.844 26.27 140.164 26.27C139.164 26.27 138.344 25.83 137.704 24.95C137.084 24.07 136.774 22.93 136.774 21.53C136.774 19.85 137.214 18.52 138.094 17.54C138.974 16.54 140.174 16.04 141.694 16.04C142.394 16.04 143.034 16.2 143.614 16.52V13.19C143.614 12.91 143.484 12.77 143.224 12.77H142.204L142.084 12.47C142.484 12.11 142.994 11.83 143.614 11.63C144.234 11.41 144.844 11.3 145.444 11.3C145.704 11.3 145.914 11.36 146.074 11.48C146.234 11.58 146.314 11.73 146.314 11.93V24.29C146.314 24.89 146.504 25.19 146.884 25.19C147.264 25.19 147.634 25.04 147.994 24.74L148.234 25.04ZM141.724 24.83C142.484 24.83 143.114 24.41 143.614 23.57V17.12C143.214 16.92 142.774 16.82 142.294 16.82C140.614 16.82 139.774 18.27 139.774 21.17C139.774 22.35 139.934 23.26 140.254 23.9C140.594 24.52 141.084 24.83 141.724 24.83ZM152.47 19.37C152.05 19.61 151.55 19.73 150.97 19.73C150.55 19.73 150.22 19.61 149.98 19.37C149.74 19.11 149.62 18.75 149.62 18.29C149.62 17.61 149.95 17.07 150.61 16.67C151.29 16.25 152.17 16.04 153.25 16.04C154.53 16.04 155.53 16.32 156.25 16.88C156.99 17.44 157.36 18.2 157.36 19.16V24.35C157.36 24.91 157.56 25.19 157.96 25.19C158.34 25.19 158.71 25.04 159.07 24.74L159.31 25.04C158.57 25.86 157.69 26.27 156.67 26.27C156.07 26.27 155.61 26.12 155.29 25.82C154.99 25.52 154.81 25.05 154.75 24.41H154.63C154.31 24.99 153.88 25.45 153.34 25.79C152.82 26.11 152.22 26.27 151.54 26.27C150.78 26.27 150.17 26.04 149.71 25.58C149.25 25.1 149.02 24.48 149.02 23.72C149.02 22.86 149.43 22.18 150.25 21.68C151.07 21.18 152.18 20.93 153.58 20.93C153.84 20.93 154.21 20.95 154.69 20.99V19.49C154.69 18.51 154.57 17.81 154.33 17.39C154.09 16.95 153.7 16.73 153.16 16.73C152.78 16.73 152.48 16.85 152.26 17.09C152.04 17.33 151.93 17.64 151.93 18.02C151.93 18.62 152.11 19.07 152.47 19.37ZM152.92 24.77C154.1 24.77 154.69 23.7 154.69 21.56C153.69 21.56 152.94 21.73 152.44 22.07C151.94 22.39 151.69 22.85 151.69 23.45C151.69 23.85 151.8 24.17 152.02 24.41C152.24 24.65 152.54 24.77 152.92 24.77Z" fill="#FFB620"/>
<path d="M21.7251 3.13129L12.0002 8.22809L13 8.22813L25.1792 5.43062L24.4295 3.98296C23.9197 2.99875 22.7068 2.61677 21.7251 3.13129Z" fill="#FAB72D"/>
<path d="M17 8.22754H31L30.5411 6.62138C30.2409 5.57078 29.1532 4.95553 28.0981 5.23959L17 8.22754Z" fill="url(#paint0_linear_197_14)"/>
<rect x="6" y="9.22754" width="29" height="22" rx="2" fill="url(#paint1_linear_197_14)"/>
<rect x="26" y="16.2275" width="14" height="8" rx="2" fill="url(#paint2_linear_197_14)"/>
<path d="M32.065 20.166C32.065 20.9944 31.3934 21.666 30.565 21.666C29.7366 21.666 29.065 20.9944 29.065 20.166C29.065 19.3376 29.7366 18.666 30.565 18.666C31.3934 18.666 32.065 19.3376 32.065 20.166Z" fill="white"/>
<path d="M16.216 15.9555V13.1875H17.288V15.9555H16.216ZM14.088 15.9555V13.1875H15.16V15.9555H14.088ZM16.216 27.7955V25.0275H17.288V27.7955H16.216ZM14.088 27.7955V25.0275H15.16V27.7955H14.088ZM12.44 26.2275V14.8035H15.192C16.1093 14.8035 16.872 14.8995 17.48 15.0915C18.0987 15.2729 18.5627 15.5769 18.872 16.0035C19.192 16.4195 19.352 16.9849 19.352 17.6995C19.352 18.1262 19.2987 18.5155 19.192 18.8675C19.0853 19.2195 18.9307 19.5075 18.728 19.7315C18.5253 19.9555 18.28 20.0995 17.992 20.1635V20.2435C18.3013 20.3182 18.5787 20.4515 18.824 20.6435C19.0693 20.8355 19.2667 21.1129 19.416 21.4755C19.5653 21.8382 19.64 22.3182 19.64 22.9155C19.64 23.6089 19.4907 24.2062 19.192 24.7075C18.8933 25.1982 18.4613 25.5769 17.896 25.8435C17.3413 26.0995 16.68 26.2275 15.912 26.2275H12.44ZM15.464 19.3315C15.9973 19.3315 16.3653 19.2195 16.568 18.9955C16.7707 18.7715 16.872 18.4462 16.872 18.0195C16.872 17.5822 16.7493 17.2675 16.504 17.0755C16.2587 16.8835 15.8693 16.7875 15.336 16.7875H14.856V19.3315H15.464ZM14.856 21.2515V24.2275H15.64C16.1947 24.2275 16.5787 24.0889 16.792 23.8115C17.016 23.5235 17.128 23.1449 17.128 22.6755C17.128 22.3875 17.08 22.1369 16.984 21.9235C16.888 21.7102 16.7227 21.5449 16.488 21.4275C16.264 21.3102 15.9547 21.2515 15.56 21.2515H14.856Z" fill="white"/>
</g>
<defs>
<linearGradient id="paint0_linear_197_14" x1="17.4828" y1="4.96618" x2="20.7402" y2="12.4711" gradientUnits="userSpaceOnUse">
<stop offset="0.232211" stop-color="#FAB72D"/>
<stop offset="0.918256" stop-color="#FFE2A7"/>
</linearGradient>
<linearGradient id="paint1_linear_197_14" x1="7" y1="10.7275" x2="34" y2="31.2275" gradientUnits="userSpaceOnUse">
<stop offset="0.232211" stop-color="#FFB620"/>
<stop offset="0.918256" stop-color="#FFE2A7"/>
</linearGradient>
<linearGradient id="paint2_linear_197_14" x1="26.4828" y1="16.773" x2="36.6753" y2="27.0469" gradientUnits="userSpaceOnUse">
<stop offset="0.232211" stop-color="#FFB620"/>
<stop offset="0.918256" stop-color="#FFE2A7"/>
</linearGradient>
<clipPath id="clip0_197_14">
<rect width="164" height="36" fill="white"/>
</clipPath>
</defs>
</svg>
